<?xml version="1.0" encoding="utf-8"?>
<!-- Generator: Adobe Illustrator 15.0.0, SVG Export Plug-In . SVG Version: 6.00 Build 0)  -->
<!DOCTYPE svg PUBLIC "-//W3C//DTD SVG 1.1//EN" "http://www.w3.org/Graphics/SVG/1.1/DTD/svg11.dtd">
<svg version="1.1" id="Layer_1" xmlns="http://www.w3.org/2000/svg" xmlns:xlink="http://www.w3.org/1999/xlink" x="0px" y="0px"
	 width="85px" height="85px" viewBox="0 0 85 85" enable-background="new 0 0 85 85" xml:space="preserve">
<path fill="#28B8EB" d="M43.738,4.215c0.969,0,1.754,0.785,1.754,1.753c0,0.969-0.785,1.754-1.754,1.754
	c-0.968,0-1.753-0.785-1.753-1.754C41.985,5,42.771,4.215,43.738,4.215"/>
<path fill="#28B8EB" d="M18.008,29.245l5.045-6.151c0.427-0.519,0.35-1.286-0.168-1.711c-0.518-0.426-1.285-0.349-1.71,0.169
	l-5.745,7.003c-0.397,0.482-0.362,1.189,0.081,1.63l6.256,6.255c0.237,0.238,0.548,0.357,0.859,0.357s0.622-0.119,0.859-0.357
	c0.475-0.474,0.475-1.244,0-1.719L18.008,29.245z"/>
<path fill="#28B8EB" d="M39.288,27.718l-6.257-6.256c-0.474-0.474-1.243-0.474-1.718,0c-0.475,0.476-0.475,1.245,0,1.72l5.477,5.476
	l-5.046,6.151c-0.425,0.519-0.349,1.285,0.17,1.712c0.226,0.185,0.499,0.275,0.771,0.275c0.351,0,0.701-0.153,0.941-0.445
	l5.743-7.003C39.764,28.865,39.731,28.16,39.288,27.718"/>
<path fill="#28B8EB" d="M75.935,0.528H10.728c-4.071,0-7.772,3.313-7.772,7.383v45.821c0,4.072,3.701,7.771,7.772,7.771h25.774
	c0.131,1.647,0.256,6.813-0.267,8.544c-0.958,1.425-11.115,4.421-19.91,6.472c-0.548,0.128-1.009,0.521-1.009,1.083v4.113
	c0,0.67,0.688,1.212,1.357,1.212h53.318c0.669,0,1.355-0.542,1.355-1.212v-4.113c0-0.564-0.46-1.052-1.009-1.182
	c-8.843-2.049-19.02-4.951-19.942-6.283c-0.558-1.814-0.533-6.986-0.439-8.634h25.979c4.071,0,7.772-3.699,7.772-7.771V7.911
	C83.707,3.841,80.006,0.528,75.935,0.528 M68.875,78.562v1.894H17.788v-1.894c9.064-2.174,19.856-5.044,20.678-7.715
	c0.715-2.33,0.578-7.696,0.463-9.344h8.601c-0.086,1.647-0.154,7.016,0.563,9.347C48.912,73.52,59.811,76.388,68.875,78.562
	 M81.235,54.07c0,2.741-3.046,4.961-5.784,4.961H10.389c-2.74,0-4.961-2.22-4.961-4.961V7.96C5.428,5.221,7.649,3,10.389,3h65.062
	c2.738,0,5.784,2.221,5.784,4.96V54.07z"/>
<path fill="#28B8EB" d="M75.903,10.416H10.76c-0.669,0-1.212,0.542-1.212,1.212v36.304c0,0.67,0.543,1.211,1.212,1.211h65.144
	c0.67,0,1.212-0.541,1.212-1.211V11.628C77.115,10.958,76.573,10.416,75.903,10.416 M12.02,12.888h30.488v33.784H12.02V12.888z
	 M74.643,46.671H44.979V12.887h29.664V46.671z"/>
<path fill="#28B8EB" d="M47.864,30.191h23.895c0.683,0,1.236-0.552,1.236-1.235V15.771c0-0.683-0.554-1.235-1.236-1.235H47.864
	c-0.683,0-1.236,0.552-1.236,1.235v13.185C46.628,29.639,47.182,30.191,47.864,30.191 M49.1,17.008h21.425v10.711H49.1V17.008z"/>
<path fill="#28B8EB" d="M71.348,32.664H48.275c-0.682,0-1.236,0.553-1.236,1.236s0.555,1.236,1.236,1.236h23.072
	c0.682,0,1.235-0.553,1.235-1.236S72.029,32.664,71.348,32.664"/>
<path fill="#28B8EB" d="M71.348,37.607H48.275c-0.682,0-1.236,0.553-1.236,1.236s0.555,1.236,1.236,1.236h23.072
	c0.682,0,1.235-0.553,1.235-1.236S72.029,37.607,71.348,37.607"/>
<path fill="#28B8EB" d="M71.348,42.551H48.275c-0.682,0-1.236,0.554-1.236,1.236c0,0.683,0.555,1.236,1.236,1.236h23.072
	c0.682,0,1.235-0.554,1.235-1.236C72.583,43.105,72.029,42.551,71.348,42.551"/>
</svg>
