<?xml version="1.0" encoding="utf-8"?>
<!-- Generator: Adobe Illustrator 15.0.0, SVG Export Plug-In . SVG Version: 6.00 Build 0)  -->
<!DOCTYPE svg PUBLIC "-//W3C//DTD SVG 1.1//EN" "http://www.w3.org/Graphics/SVG/1.1/DTD/svg11.dtd">
<svg version="1.1" id="Layer_1" xmlns="http://www.w3.org/2000/svg" xmlns:xlink="http://www.w3.org/1999/xlink" x="0px" y="0px"
	 width="85px" height="85px" viewBox="0 0 85 85" enable-background="new 0 0 85 85" xml:space="preserve">
<path fill="#28B8EB" d="M18.611,20.241c-2.754,0-4.995-2.242-4.995-4.996c0-2.754,2.241-4.996,4.995-4.996s4.995,2.242,4.995,4.996
	C23.606,18,21.365,20.241,18.611,20.241 M18.611,13.58c-0.919,0-1.665,0.749-1.665,1.665s0.746,1.665,1.665,1.665
	s1.665-0.749,1.665-1.665S19.53,13.58,18.611,13.58"/>
<path fill="#28B8EB" d="M18.611,43.553c-2.754,0-4.995-2.241-4.995-4.996c0-2.754,2.241-4.996,4.995-4.996s4.995,2.242,4.995,4.996
	C23.606,41.312,21.365,43.553,18.611,43.553 M18.611,36.892c-0.919,0-1.665,0.749-1.665,1.665s0.746,1.665,1.665,1.665
	s1.665-0.749,1.665-1.665S19.53,36.892,18.611,36.892"/>
<path fill="#28B8EB" d="M71.063,75.19H14.449c-6.428,0-11.656-5.229-11.656-11.656V13.581c0-6.428,5.229-11.657,11.656-11.657
	h56.614c6.428,0,11.656,5.229,11.656,11.657v49.954C82.72,69.961,77.491,75.19,71.063,75.19 M14.449,5.254
	c-4.59,0-8.326,3.736-8.326,8.326v49.954c0,4.589,3.736,8.326,8.326,8.326h56.614c4.589,0,8.326-3.737,8.326-8.326V13.581
	c0-4.59-3.737-8.326-8.326-8.326H14.449z"/>
<path fill="#28B8EB" d="M18.611,66.864c-2.754,0-4.995-2.241-4.995-4.995s2.241-4.995,4.995-4.995s4.995,2.241,4.995,4.995
	S21.365,66.864,18.611,66.864 M18.611,60.204c-0.919,0-1.665,0.749-1.665,1.665s0.746,1.665,1.665,1.665s1.665-0.749,1.665-1.665
	S19.53,60.204,18.611,60.204"/>
<path fill="#28B8EB" d="M27.77,81.852h-13.32c-0.919,0-1.665-0.75-1.665-1.666v-6.66c0-0.916,0.746-1.665,1.665-1.665h13.32
	c0.92,0,1.666,0.749,1.666,1.665v6.66C29.436,81.102,28.689,81.852,27.77,81.852 M16.114,78.521h9.991v-3.33h-9.991V78.521z"/>
<path fill="#28B8EB" d="M71.064,81.852H57.743c-0.916,0-1.665-0.75-1.665-1.666v-6.66c0-0.916,0.749-1.665,1.665-1.665h13.321
	c0.916,0,1.664,0.749,1.664,1.665v6.66C72.729,81.102,71.98,81.852,71.064,81.852 M59.408,78.521h9.99v-3.33h-9.99V78.521z"/>
<path fill="#28B8EB" d="M79.39,51.878H6.123c-0.92,0-1.666-0.749-1.666-1.665s0.746-1.664,1.666-1.664H79.39
	c0.916,0,1.665,0.748,1.665,1.664S80.306,51.878,79.39,51.878"/>
<path fill="#28B8EB" d="M79.39,28.566H6.123c-0.92,0-1.666-0.746-1.666-1.666c0-0.918,0.746-1.665,1.666-1.665H79.39
	c0.916,0,1.665,0.747,1.665,1.665C81.055,27.821,80.306,28.566,79.39,28.566"/>
<path fill="#28B8EB" d="M59.408,13.58c0,0.92-0.745,1.665-1.665,1.665c-0.921,0-1.665-0.745-1.665-1.665
	c0-0.92,0.744-1.666,1.665-1.666C58.663,11.915,59.408,12.66,59.408,13.58"/>
<path fill="#28B8EB" d="M66.068,13.58c0,0.92-0.745,1.665-1.665,1.665s-1.665-0.745-1.665-1.665c0-0.92,0.745-1.666,1.665-1.666
	S66.068,12.66,66.068,13.58"/>
<path fill="#28B8EB" d="M72.729,13.58c0,0.92-0.744,1.665-1.664,1.665c-0.921,0-1.666-0.745-1.666-1.665
	c0-0.92,0.745-1.666,1.666-1.666C71.984,11.915,72.729,12.66,72.729,13.58"/>
<path fill="#28B8EB" d="M59.408,36.892c0,0.92-0.745,1.665-1.665,1.665c-0.921,0-1.665-0.745-1.665-1.665
	c0-0.92,0.744-1.666,1.665-1.666C58.663,35.227,59.408,35.972,59.408,36.892"/>
<path fill="#28B8EB" d="M66.068,36.892c0,0.92-0.745,1.665-1.665,1.665s-1.665-0.745-1.665-1.665c0-0.92,0.745-1.666,1.665-1.666
	S66.068,35.972,66.068,36.892"/>
<path fill="#28B8EB" d="M72.729,36.892c0,0.92-0.744,1.665-1.664,1.665c-0.921,0-1.666-0.745-1.666-1.665
	c0-0.92,0.745-1.666,1.666-1.666C71.984,35.227,72.729,35.972,72.729,36.892"/>
<path fill="#28B8EB" d="M59.408,60.204c0,0.92-0.745,1.665-1.665,1.665c-0.921,0-1.665-0.745-1.665-1.665s0.744-1.665,1.665-1.665
	C58.663,58.539,59.408,59.284,59.408,60.204"/>
<path fill="#28B8EB" d="M66.068,60.204c0,0.92-0.745,1.665-1.665,1.665s-1.665-0.745-1.665-1.665s0.745-1.665,1.665-1.665
	S66.068,59.284,66.068,60.204"/>
<path fill="#28B8EB" d="M72.729,60.204c0,0.92-0.744,1.665-1.664,1.665c-0.921,0-1.666-0.745-1.666-1.665s0.745-1.665,1.666-1.665
	C71.984,58.539,72.729,59.284,72.729,60.204"/>
</svg>
