<?xml version="1.0" encoding="utf-8"?>
<!-- Generator: Adobe Illustrator 15.0.0, SVG Export Plug-In . SVG Version: 6.00 Build 0)  -->
<!DOCTYPE svg PUBLIC "-//W3C//DTD SVG 1.1//EN" "http://www.w3.org/Graphics/SVG/1.1/DTD/svg11.dtd">
<svg version="1.1" id="Layer_1" xmlns="http://www.w3.org/2000/svg" xmlns:xlink="http://www.w3.org/1999/xlink" x="0px" y="0px"
	 width="85px" height="85px" viewBox="0 0 85 85" enable-background="new 0 0 85 85" xml:space="preserve">
<path fill="#28B8EB" d="M330.74,1009.579l-1.668,4.076c-0.463,1.02-1.203,1.853-2.315,2.316c-1.019,0.463-2.224,0.463-3.242,0
	l-2.594-1.112c-1.575,2.038-3.335,3.891-5.373,5.373l1.112,2.594c0.463,1.02,0.463,2.224,0,3.243
	c-0.465,1.019-1.205,1.853-2.316,2.315l-4.077,1.668c-0.555,0.185-1.019,0.277-1.573,0.277c-0.557,0-1.113-0.093-1.576-0.277
	c-1.019-0.463-1.853-1.204-2.315-2.316l-1.112-2.501c-2.5,0.37-5.095,0.37-7.688,0l-1.112,2.594
	c-0.926,2.13-3.335,3.149-5.466,2.316l-4.076-1.668c-1.019-0.463-1.853-1.204-2.315-2.316c-0.463-1.019-0.463-2.223,0-3.241
	l1.111-2.595c-2.037-1.575-3.891-3.335-5.373-5.373l-2.502,1.02c-2.13,0.926-4.632-0.093-5.465-2.316l-1.668-4.076
	c-0.926-2.131,0.093-4.633,2.316-5.466l2.594-1.111c-0.371-2.502-0.371-5.096,0-7.689l-2.594-1.111
	c-2.131-0.927-3.15-3.336-2.316-5.466l1.668-4.077c0.463-1.019,1.204-1.853,2.316-2.315c1.019-0.464,2.223-0.464,3.242,0
	l2.594,1.112c1.574-2.039,3.334-3.892,5.373-5.373l-1.112-2.594c-0.463-1.02-0.463-2.225,0-3.244
	c0.464-1.019,1.205-1.852,2.315-2.315l4.078-1.667c1.019-0.463,2.223-0.463,3.241,0s1.853,1.204,2.316,2.316l1.575,3.705
	c0.371,0.834-0.094,1.76-0.834,2.037c-0.834,0.371-1.76-0.092-2.039-0.832l-1.574-3.707c-0.092-0.277-0.278-0.463-0.557-0.556
	c-0.277-0.092-0.555-0.092-0.832,0l-4.078,1.668c-0.276,0.092-0.463,0.278-0.555,0.556c-0.093,0.278-0.093,0.557,0,0.834
	l1.574,3.705c0.278,0.741,0,1.482-0.555,1.946c-2.502,1.667-4.633,3.798-6.393,6.392c-0.464,0.648-1.205,0.834-1.945,0.555
	l-3.706-1.573c-0.556-0.187-1.111,0-1.39,0.556l-1.853,4.168c-0.185,0.557,0,1.112,0.556,1.391l3.705,1.574
	c0.742,0.278,1.112,1.02,0.928,1.76c-0.557,2.965-0.557,6.022,0,8.986c0.185,0.741-0.278,1.483-0.928,1.76l-3.705,1.575
	c-0.556,0.187-0.834,0.834-0.556,1.391l1.667,4.075c0.186,0.557,0.834,0.741,1.391,0.557l3.705-1.575
	c0.741-0.278,1.482,0,1.945,0.556c1.668,2.502,3.798,4.633,6.393,6.393c0.648,0.463,0.834,1.204,0.555,1.945l-1.574,3.705
	c-0.092,0.278-0.092,0.557,0,0.834c0.093,0.278,0.277,0.463,0.556,0.557l4.076,1.667c0.556,0.185,1.112,0,1.39-0.556l1.575-3.705
	c0.278-0.741,1.019-1.112,1.761-0.928c2.963,0.557,6.021,0.557,8.985,0c0.741-0.185,1.481,0.278,1.761,0.928l1.574,3.705
	c0.094,0.277,0.278,0.463,0.557,0.556c0.277,0.093,0.556,0.093,0.834,0l4.076-1.667c0.277-0.094,0.463-0.278,0.555-0.557
	c0.093-0.277,0.093-0.556,0-0.834l-1.574-3.705c-0.278-0.741,0-1.482,0.556-1.945c2.501-1.668,4.632-3.798,6.392-6.393
	c0.464-0.648,1.205-0.834,1.945-0.556l3.706,1.575c0.556,0.185,1.112,0,1.39-0.557l1.668-4.075c0.185-0.557,0-1.112-0.557-1.391
	l-3.705-1.575c-0.834-0.369-1.205-1.297-0.834-2.037c0.37-0.834,1.297-1.204,2.038-0.834l3.706,1.574
	C330.648,1005.039,331.667,1007.448,330.74,1009.579 M286.552,999.295c0.092,7.319,6.021,13.248,13.34,13.248h0.093
	c7.318-0.093,13.248-6.113,13.248-13.433c0-0.833-0.742-1.575-1.576-1.575s-1.574,0.742-1.574,1.575
	c0,5.651-4.539,10.191-10.098,10.283h-0.093c-5.559,0-10.098-4.539-10.19-10.099c0-5.65,4.539-10.189,10.098-10.282
	c0.834,0,1.575-0.741,1.575-1.574c0-0.834-0.741-1.575-1.575-1.575C292.48,985.955,286.552,991.978,286.552,999.295
	 M335.836,973.728c0,5.373-4.354,9.728-9.727,9.728s-9.728-4.354-9.728-9.728s4.354-9.728,9.728-9.728
	S335.836,968.354,335.836,973.728 M332.686,973.728c0-3.612-2.964-6.578-6.576-6.578c-3.613,0-6.578,2.966-6.578,6.578
	s2.965,6.577,6.578,6.577C329.722,980.305,332.686,977.34,332.686,973.728 M350.103,972.152v3.242c0,1.945-1.575,3.521-3.521,3.521
	h-1.668c-0.463,1.666-1.111,3.148-1.945,4.631l1.205,1.205c0.648,0.648,1.02,1.574,1.02,2.5c0,0.927-0.371,1.761-1.02,2.502
	l-2.225,2.131c-0.647,0.648-1.573,1.02-2.5,1.02c-0.926,0-1.854-0.371-2.502-1.02l-1.203-1.204
	c-1.483,0.834-3.059,1.481-4.633,1.944v1.668c0,1.945-1.574,3.521-3.521,3.521h-3.242c-1.946,0-3.521-1.575-3.521-3.521v-1.668
	c-1.668-0.463-3.149-1.11-4.633-1.944l-1.019,1.204c-0.647,0.648-1.575,1.02-2.501,1.02s-1.76-0.371-2.501-1.02l-2.224-2.223
	c-1.39-1.391-1.39-3.613,0-4.91l1.205-1.205c-0.834-1.482-1.483-3.057-1.946-4.631h-1.667c-1.946,0-3.521-1.576-3.521-3.521v-3.242
	c0-1.945,1.575-3.521,3.521-3.521h1.667c0.463-1.666,1.112-3.148,1.946-4.631l-1.205-1.205c-1.39-1.389-1.39-3.612,0-4.909
	l2.224-2.224c0.647-0.648,1.575-1.019,2.501-1.019s1.76,0.37,2.501,1.019l1.205,1.205c1.481-0.834,3.058-1.482,4.632-1.945v-1.668
	c0-1.945,1.575-3.521,3.52-3.521h3.242c1.946,0,3.521,1.575,3.521,3.521v1.574c1.667,0.463,3.15,1.112,4.632,1.946l1.204-1.204
	c0.648-0.648,1.575-1.02,2.501-1.02c0.927,0,1.761,0.371,2.502,1.02l2.224,2.223c0.648,0.648,1.019,1.574,1.019,2.502
	c0,0.926-0.37,1.76-1.019,2.5L343.154,964c0.834,1.482,1.482,3.058,1.945,4.631h1.668
	C348.621,968.631,350.103,970.207,350.103,972.152 M346.953,972.152c0-0.186-0.186-0.371-0.371-0.371h-2.871
	c-0.742,0-1.391-0.556-1.575-1.297c-0.463-2.13-1.205-4.076-2.409-5.929c-0.463-0.647-0.369-1.481,0.186-2.038l2.037-2.038
	c0.094-0.093,0.094-0.185,0.094-0.278c0-0.092,0-0.185-0.094-0.277l-2.223-2.223c-0.093-0.094-0.185-0.094-0.277-0.094
	c-0.092,0-0.186,0-0.278,0.094l-1.945,2.223c-0.556,0.556-1.39,0.648-2.038,0.186c-1.76-1.205-3.799-2.039-5.929-2.408
	c-0.741-0.186-1.297-0.834-1.297-1.576v-2.965c0-0.185-0.187-0.369-0.371-0.369h-3.242c-0.187,0-0.371,0.185-0.371,0.369v2.965
	c0,0.742-0.556,1.391-1.297,1.576c-2.13,0.463-4.075,1.203-5.836,2.408c-0.649,0.463-1.481,0.37-2.038-0.186l-2.038-2.038
	c-0.093-0.093-0.186-0.093-0.278-0.093c-0.092,0-0.185,0-0.277,0.093l-2.225,2.224c-0.092,0.092-0.092,0.37,0,0.463l2.039,2.038
	c0.556,0.556,0.648,1.39,0.186,2.038c-1.204,1.76-2.038,3.799-2.409,5.93c-0.185,0.74-0.834,1.297-1.575,1.297h-2.964
	c-0.185,0-0.371,0.185-0.371,0.369v3.244c0,0.184,0.187,0.37,0.371,0.37h3.242c0.741,0,1.39,0.556,1.575,1.296
	c0.463,2.131,1.203,4.077,2.408,5.93c0.463,0.648,0.371,1.482-0.185,2.037l-2.039,2.039c-0.092,0.092-0.092,0.371,0,0.463
	l2.224,2.224c0.093,0.093,0.186,0.093,0.278,0.093s0.185,0,0.278-0.093l2.038-2.038c0.278-0.277,0.741-0.463,1.11-0.463
	c0.278,0,0.649,0.093,0.834,0.277c1.76,1.205,3.799,2.039,5.838,2.408c0.74,0.186,1.295,0.834,1.295,1.575v2.966
	c0,0.184,0.187,0.37,0.371,0.37h3.242c0.187,0,0.371-0.187,0.371-0.37v-2.966c0-0.741,0.557-1.39,1.297-1.575
	c2.131-0.463,4.076-1.203,5.93-2.408c0.648-0.463,1.482-0.371,2.037,0.186l2.039,2.038c0.093,0.093,0.185,0.093,0.277,0.093
	c0.094,0,0.186,0,0.278-0.093l2.223-2.224c0.093-0.092,0.093-0.185,0.093-0.277c0-0.094,0-0.186-0.093-0.278l-2.038-2.038
	c-0.556-0.556-0.647-1.39-0.185-2.037c1.204-1.761,2.038-3.799,2.409-5.93c0.185-0.742,0.832-1.297,1.574-1.297h2.965
	c0.185,0,0.371-0.186,0.371-0.371v-3.242H346.953z"/>
<path fill="#28B8EB" d="M64.74,61.839l-1.668,4.076c-0.463,1.02-1.203,1.853-2.315,2.316c-1.019,0.463-2.224,0.463-3.242,0
	l-2.594-1.112c-1.575,2.038-3.335,3.891-5.373,5.373l1.112,2.594c0.463,1.02,0.463,2.224,0,3.243
	c-0.465,1.019-1.205,1.853-2.316,2.315l-4.077,1.668c-0.555,0.185-1.019,0.277-1.574,0.277c-0.556,0-1.112-0.093-1.575-0.277
	c-1.019-0.463-1.853-1.204-2.316-2.316l-1.112-2.501c-2.501,0.37-5.095,0.37-7.689,0l-1.112,2.594
	c-0.926,2.13-3.335,3.149-5.466,2.316l-4.076-1.668c-1.019-0.463-1.853-1.204-2.316-2.316c-0.463-1.019-0.463-2.223,0-3.241
	l1.112-2.595c-2.038-1.575-3.891-3.335-5.373-5.373l-2.502,1.02c-2.13,0.926-4.632-0.093-5.465-2.316l-1.668-4.076
	c-0.926-2.131,0.093-4.633,2.316-5.466l2.594-1.111c-0.371-2.502-0.371-5.096,0-7.689l-2.594-1.111
	c-2.131-0.927-3.15-3.336-2.316-5.466l1.668-4.077c0.463-1.019,1.204-1.853,2.316-2.316c1.019-0.463,2.223-0.463,3.242,0
	l2.594,1.112c1.575-2.038,3.335-3.891,5.373-5.373l-1.112-2.594c-0.463-1.019-0.463-2.224,0-3.243
	c0.464-1.019,1.205-1.852,2.316-2.316l4.077-1.667c1.019-0.463,2.223-0.463,3.242,0c1.019,0.463,1.853,1.204,2.316,2.316
	l1.575,3.705c0.371,0.834-0.093,1.761-0.834,2.038c-0.834,0.371-1.76-0.092-2.038-0.833l-1.575-3.706
	c-0.092-0.278-0.278-0.463-0.556-0.556c-0.278-0.092-0.555-0.092-0.833,0l-4.077,1.668c-0.277,0.092-0.463,0.278-0.555,0.556
	c-0.093,0.278-0.093,0.556,0,0.833l1.574,3.706c0.278,0.741,0,1.482-0.555,1.946c-2.502,1.667-4.632,3.798-6.393,6.392
	c-0.463,0.648-1.204,0.833-1.945,0.555l-3.706-1.574c-0.555-0.186-1.111,0-1.389,0.555l-1.853,4.169
	c-0.185,0.556,0,1.112,0.556,1.39l3.705,1.574c0.742,0.278,1.112,1.02,0.927,1.76c-0.556,2.965-0.556,6.022,0,8.986
	c0.185,0.741-0.278,1.483-0.927,1.76l-3.705,1.575c-0.556,0.187-0.834,0.834-0.556,1.391l1.667,4.075
	c0.186,0.557,0.834,0.741,1.39,0.557l3.706-1.575c0.741-0.278,1.482,0,1.945,0.556c1.668,2.502,3.798,4.633,6.392,6.393
	c0.649,0.463,0.834,1.204,0.556,1.945l-1.575,3.705c-0.092,0.278-0.092,0.557,0,0.834c0.093,0.278,0.278,0.463,0.556,0.557
	l4.076,1.667c0.556,0.185,1.112,0,1.39-0.556l1.575-3.705c0.278-0.741,1.019-1.112,1.76-0.928c2.964,0.557,6.022,0.557,8.986,0
	c0.741-0.185,1.482,0.278,1.76,0.928l1.575,3.705c0.093,0.277,0.278,0.463,0.556,0.556s0.556,0.093,0.834,0l4.076-1.667
	c0.277-0.094,0.463-0.278,0.555-0.557c0.093-0.277,0.093-0.556,0-0.834l-1.574-3.705c-0.278-0.741,0-1.482,0.556-1.945
	c2.501-1.668,4.632-3.798,6.392-6.393c0.464-0.648,1.205-0.834,1.945-0.556l3.706,1.575c0.556,0.185,1.112,0,1.39-0.557l1.668-4.075
	c0.185-0.557,0-1.112-0.557-1.391l-3.705-1.575c-0.834-0.369-1.205-1.297-0.834-2.037c0.37-0.834,1.297-1.204,2.038-0.834
	l3.706,1.574C64.648,57.299,65.667,59.708,64.74,61.839 M20.552,51.555c0.092,7.319,6.021,13.248,13.34,13.248h0.092
	c7.319-0.093,13.249-6.113,13.249-13.433c0-0.833-0.742-1.575-1.576-1.575s-1.574,0.742-1.574,1.575
	c0,5.651-4.539,10.191-10.098,10.283h-0.092c-5.559,0-10.098-4.539-10.191-10.099c0-5.65,4.54-10.189,10.098-10.282
	c0.834,0,1.575-0.741,1.575-1.574c0-0.834-0.741-1.576-1.575-1.576C26.48,38.215,20.552,44.237,20.552,51.555 M69.836,25.987
	c0,5.373-4.354,9.727-9.727,9.727s-9.728-4.354-9.728-9.727s4.354-9.727,9.728-9.727S69.836,20.614,69.836,25.987 M66.686,25.987
	c0-3.613-2.964-6.578-6.576-6.578c-3.613,0-6.578,2.965-6.578,6.578c0,3.612,2.965,6.577,6.578,6.577
	C63.722,32.564,66.686,29.599,66.686,25.987 M84.103,24.412v3.242c0,1.945-1.575,3.521-3.521,3.521h-1.668
	c-0.463,1.667-1.111,3.149-1.945,4.632l1.205,1.204c0.648,0.649,1.02,1.575,1.02,2.501c0,0.926-0.371,1.76-1.02,2.502l-2.225,2.13
	c-0.647,0.648-1.573,1.02-2.5,1.02c-0.926,0-1.854-0.371-2.502-1.02l-1.203-1.204c-1.483,0.834-3.059,1.481-4.633,1.944v1.668
	c0,1.945-1.574,3.521-3.521,3.521h-3.242c-1.946,0-3.521-1.575-3.521-3.521v-1.668c-1.668-0.463-3.149-1.11-4.633-1.944
	l-1.019,1.204c-0.647,0.648-1.575,1.02-2.501,1.02s-1.76-0.371-2.501-1.02l-2.224-2.223c-1.389-1.39-1.389-3.613,0-4.91l1.206-1.204
	c-0.834-1.483-1.483-3.058-1.946-4.632h-1.667c-1.946,0-3.521-1.576-3.521-3.521v-3.242c0-1.946,1.575-3.521,3.521-3.521h1.667
	c0.463-1.667,1.112-3.149,1.946-4.631l-1.206-1.205c-1.389-1.39-1.389-3.613,0-4.91l2.224-2.223
	c0.647-0.649,1.575-1.019,2.501-1.019s1.76,0.37,2.501,1.019l1.205,1.204c1.481-0.834,3.058-1.482,4.632-1.945V5.513
	c0-1.945,1.575-3.52,3.52-3.52h3.242c1.946,0,3.521,1.575,3.521,3.52v1.575c1.667,0.463,3.15,1.112,4.632,1.946l1.204-1.205
	c0.648-0.648,1.575-1.019,2.501-1.019c0.927,0,1.761,0.371,2.502,1.019l2.224,2.224c0.648,0.648,1.019,1.574,1.019,2.501
	c0,0.926-0.37,1.76-1.019,2.501l-1.205,1.205c0.834,1.482,1.482,3.057,1.945,4.631h1.668C82.621,20.891,84.103,22.466,84.103,24.412
	 M80.953,24.412c0-0.186-0.186-0.371-0.371-0.371h-2.871c-0.742,0-1.391-0.556-1.575-1.297c-0.463-2.13-1.205-4.076-2.409-5.929
	c-0.463-0.648-0.369-1.482,0.186-2.038l2.037-2.038c0.094-0.093,0.094-0.185,0.094-0.278c0-0.092,0-0.185-0.094-0.278L73.727,9.96
	c-0.093-0.093-0.185-0.093-0.277-0.093c-0.092,0-0.186,0-0.278,0.093l-1.945,2.223c-0.556,0.556-1.39,0.649-2.038,0.186
	c-1.76-1.205-3.799-2.039-5.929-2.409c-0.741-0.185-1.297-0.834-1.297-1.575V5.42c0-0.185-0.187-0.37-0.371-0.37h-3.242
	c-0.187,0-0.371,0.185-0.371,0.37v2.965c0,0.741-0.556,1.39-1.297,1.575c-2.13,0.463-4.075,1.204-5.836,2.409
	c-0.649,0.463-1.481,0.37-2.038-0.186l-2.038-2.038c-0.093-0.092-0.186-0.092-0.278-0.092c-0.092,0-0.185,0-0.277,0.092
	l-2.225,2.224c-0.092,0.092-0.092,0.37,0,0.463l2.039,2.038c0.556,0.556,0.648,1.39,0.186,2.038
	c-1.204,1.76-2.038,3.798-2.409,5.929c-0.185,0.741-0.834,1.297-1.575,1.297h-2.964c-0.185,0-0.371,0.185-0.371,0.37v3.243
	c0,0.185,0.186,0.371,0.371,0.371h3.242c0.741,0,1.39,0.555,1.575,1.296c0.463,2.131,1.203,4.077,2.408,5.929
	c0.463,0.649,0.371,1.483-0.185,2.038l-2.039,2.038c-0.092,0.093-0.092,0.371,0,0.464l2.224,2.223
	c0.093,0.093,0.186,0.093,0.278,0.093s0.185,0,0.278-0.093l2.038-2.038c0.278-0.278,0.741-0.463,1.11-0.463
	c0.278,0,0.649,0.093,0.834,0.278c1.76,1.204,3.799,2.038,5.838,2.408c0.74,0.185,1.295,0.833,1.295,1.575v2.966
	c0,0.184,0.187,0.37,0.371,0.37h3.242c0.187,0,0.371-0.187,0.371-0.37v-2.966c0-0.741,0.557-1.39,1.297-1.575
	c2.131-0.463,4.076-1.204,5.93-2.408c0.648-0.464,1.482-0.371,2.037,0.185l2.039,2.038c0.093,0.093,0.185,0.093,0.277,0.093
	c0.094,0,0.186,0,0.278-0.093l2.223-2.223c0.093-0.093,0.093-0.185,0.093-0.278c0-0.093,0-0.186-0.093-0.278l-2.038-2.038
	c-0.556-0.556-0.647-1.39-0.185-2.038c1.204-1.76,2.038-3.798,2.409-5.929c0.185-0.742,0.832-1.297,1.574-1.297h2.965
	c0.185,0,0.371-0.186,0.371-0.371v-3.242H80.953z"/>
</svg>
